User Type,Username,Date,Text
,Sp4ce,2012-05-12T02:27Z,"  Duration: 01:30:37.89, start: 0.000000, bitrate: 1719 kb/s
    Stream #0:0: Video: mpeg4 (Advanced Simple Profile) (XVID / 0x44495658), yuv420p,
 624x480 [SAR 1:1 DAR 13:10], 23.98 tbr, 23.98 tbn, 23.98 tbc
    Stream #0:1: Audio: mp3 (U[0][0][0] / 0x0055), 48000 Hz, stereo, s16, 32 kb/s"
,playerboy35007,2012-05-12T06:19Z,no screen shots!!!
